<?xml version="1.0" encoding="UTF-8" standalone="no"?>
<!-- Created with Inkscape (http://www.inkscape.org/) -->

<svg
   xmlns:dc="http://purl.org/dc/elements/1.1/"
   xmlns:cc="http://creativecommons.org/ns#"
   xmlns:rdf="http://www.w3.org/1999/02/22-rdf-syntax-ns#"
   xmlns:svg="http://www.w3.org/2000/svg"
   xmlns="http://www.w3.org/2000/svg"
   xmlns:xlink="http://www.w3.org/1999/xlink"
   xmlns:sodipodi="http://sodipodi.sourceforge.net/DTD/sodipodi-0.dtd"
   xmlns:inkscape="http://www.inkscape.org/namespaces/inkscape"
   id="svg3272"
   height="16"
   width="16"
   version="1.0"
   inkscape:version="0.48.2 r9819"
   sodipodi:docname="folder.svg">
  <metadata
     id="metadata35">
    <rdf:RDF>
      <cc:Work
         rdf:about="">
        <dc:format>image/svg+xml</dc:format>
        <dc:type
           rdf:resource="http://purl.org/dc/dcmitype/StillImage" />
        <dc:title></dc:title>
      </cc:Work>
    </rdf:RDF>
  </metadata>
  <sodipodi:namedview
     pagecolor="#ffffff"
     bordercolor="#666666"
     borderopacity="1"
     objecttolerance="10"
     gridtolerance="10"
     guidetolerance="10"
     inkscape:pageopacity="0"
     inkscape:pageshadow="2"
     inkscape:window-width="1120"
     inkscape:window-height="1025"
     id="namedview33"
     showgrid="false"
     inkscape:zoom="8.3306701"
     inkscape:cx="44.087056"
     inkscape:cy="-26.419817"
     inkscape:window-x="0"
     inkscape:window-y="25"
     inkscape:window-maximized="0"
     inkscape:current-layer="svg3272" />
  <defs
     id="defs3274">
    <linearGradient
       id="linearGradient2687"
       y2="24.628"
       gradientUnits="userSpaceOnUse"
       x2="20.055"
       gradientTransform="matrix(.29669 0 0 .35207 1.8805 2.1186)"
       y1="16.408"
       x1="18.031">
      <stop
         id="stop2687"
         style="stop-color:#fff;stop-opacity:.27451"
         offset="0" />
      <stop
         id="stop2689"
         style="stop-color:#fff;stop-opacity:.078431"
         offset="1" />
    </linearGradient>
    <linearGradient
       id="linearGradient2692"
       y2="4.0514"
       gradientUnits="userSpaceOnUse"
       x2="4.176"
       gradientTransform="matrix(1.0083 0 0 1.0006 -.00082398 -.0066205)"
       y1="14.993"
       x1="10.318">
      <stop
         id="stop3624"
         style="stop-color:#bb2b12"
         offset="0" />
      <stop
         id="stop3626"
         style="stop-color:#cd7233"
         offset="1" />
    </linearGradient>
    <linearGradient
       id="linearGradient2690"
       y2="238.4"
       gradientUnits="userSpaceOnUse"
       x2="169.23"
       gradientTransform="matrix(.054893 .013851 .0025726 .052482 -.71280 -.26741)"
       y1="58.583"
       x1="126.7">
      <stop
         id="stop3618"
         style="stop-color:#edb763"
         offset="0" />
      <stop
         id="stop3270"
         style="stop-color:#de7f32"
         offset=".5" />
      <stop
         id="stop3620"
         style="stop-color:#d24413"
         offset="1" />
    </linearGradient>
    <radialGradient
       id="radialGradient2677"
       xlink:href="#linearGradient5060"
       gradientUnits="userSpaceOnUse"
       cy="486.65"
       cx="605.71"
       gradientTransform="matrix(-2.7744 0 0 1.9697 112.76 -872.89)"
       r="117.14" />
    <radialGradient
       id="radialGradient2675"
       xlink:href="#linearGradient5060"
       gradientUnits="userSpaceOnUse"
       cy="486.65"
       cx="605.71"
       gradientTransform="matrix(2.7744 0 0 1.9697 -1891.6 -872.89)"
       r="117.14" />
    <linearGradient
       id="linearGradient2673"
       y2="609.51"
       gradientUnits="userSpaceOnUse"
       x2="302.86"
       gradientTransform="matrix(2.7744 0 0 1.9697 -1892.2 -872.89)"
       y1="366.65"
       x1="302.86">
      <stop
         id="stop5050"
         style="stop-opacity:0"
         offset="0" />
      <stop
         id="stop5056"
         offset=".5" />
      <stop
         id="stop5052"
         style="stop-opacity:0"
         offset="1" />
    </linearGradient>
    <linearGradient
       id="linearGradient5060">
      <stop
         id="stop5062"
         offset="0" />
      <stop
         id="stop5064"
         style="stop-opacity:0"
         offset="1" />
    </linearGradient>
    <linearGradient
       gradientTransform="matrix(0.07426377,0,0,0.07426377,6.0122618,6.9110011)"
       id="XMLID_12_"
       gradientUnits="userSpaceOnUse"
       x1="64.210899"
       y1="106.25"
       x2="65.460899"
       y2="34.25">
      <stop
         offset="0"
         style="stop-color:#EBC710"
         id="stop43" />
      <stop
         offset="0.9944"
         style="stop-color:#F6B000"
         id="stop45" />
    </linearGradient>
    <radialGradient
       gradientTransform="matrix(0.07426377,0,0,0.07426377,6.0122618,6.9110011)"
       id="XMLID_11_"
       cx="-1"
       cy="63.5005"
       r="118.7162"
       gradientUnits="userSpaceOnUse">
      <stop
         offset="0"
         style="stop-color:#FCCC51"
         id="stop36" />
      <stop
         offset="0.9888"
         style="stop-color:#F6A95B"
         id="stop38" />
    </radialGradient>
    <radialGradient
       gradientTransform="matrix(0.07426377,0,0,0.07426377,6.0122618,6.9110011)"
       id="XMLID_10_"
       cx="-32.75"
       cy="55.5005"
       r="147.5013"
       gradientUnits="userSpaceOnUse">
      <stop
         offset="0"
         style="stop-color:#FCC128"
         id="stop29" />
      <stop
         offset="0.9888"
         style="stop-color:#F6932F"
         id="stop31" />
    </radialGradient>
    <linearGradient
       gradientTransform="matrix(0.07426377,0,0,0.07426377,6.0122618,6.9110011)"
       id="XMLID_9_"
       gradientUnits="userSpaceOnUse"
       x1="65.927696"
       y1="127.3672"
       x2="57.677799"
       y2="-8.6315002">
      <stop
         offset="0"
         style="stop-color:#FCB600"
         id="stop22" />
      <stop
         offset="0.9888"
         style="stop-color:#F67C00"
         id="stop24" />
    </linearGradient>
    <radialGradient
       gradientTransform="matrix(0.07426377,0,0,0.07426377,6.0122618,6.9110011)"
       id="XMLID_8_"
       cx="65.5"
       cy="113.25"
       r="56.749901"
       gradientUnits="userSpaceOnUse">
      <stop
         offset="0"
         style="stop-color:#FCB600"
         id="stop15" />
      <stop
         offset="0.9888"
         style="stop-color:#F67C00"
         id="stop17" />
    </radialGradient>
    <linearGradient
       gradientTransform="matrix(0.07426377,0,0,0.07426377,6.0122618,6.9110011)"
       id="XMLID_7_"
       gradientUnits="userSpaceOnUse"
       x1="65"
       y1="119"
       x2="65"
       y2="4.7495999">
      <stop
         offset="0"
         style="stop-color:#F35B00"
         id="stop8" />
      <stop
         offset="0.9888"
         style="stop-color:#EC3D00"
         id="stop10" />
    </linearGradient>
  </defs>
  <g
     id="layer1">
    <g
       id="layer6"
       transform="matrix(.36395 0 0 .34457 -.64485 -.38545)">
      <g
         id="g2488"
         transform="matrix(.021652 0 0 .014857 43.008 42.685)">
        <rect
           id="rect2490"
           style="opacity:.40206;fill:url(#linearGradient2673)"
           height="478.36"
           width="1339.6"
           y="-150.7"
           x="-1559.3" />
        <path
           id="path2492"
           style="opacity:.40206;fill:url(#radialGradient2675)"
           d="m-219.62-150.68v478.33c142.88 0.9 345.4-107.17 345.4-239.2 0-132.02-159.44-239.13-345.4-239.13z" />
        <path
           id="path2494"
           style="opacity:.40206;fill:url(#radialGradient2677)"
           d="m-1559.3-150.68v478.33c-142.8 0.9-345.4-107.17-345.4-239.2 0-132.02 159.5-239.13 345.4-239.13z" />
      </g>
    </g>
    <path
       id="rect2196"
       style="stroke-linejoin:round;stroke:#a8a8a8;stroke-linecap:round;stroke-width:0.979;fill:#fff"
       d="m0.6015 1.5215c-0.05626 0-0.10449 0.0603-0.10449 0.1226 0 4.6046 0.00337 8.6509-0.00066 12.857 4.7064-0.024 9.4152-0.048 14.123-0.065-0.417 0-1.112-0.07-1.103-0.941 0.004-3.5967 0.023-7.408 0.011-10.98l-6.0517-0.0005c-0.4775 0-1.0962-0.993-1.5261-0.993h-5.3477z" />
    <path
       id="rect3086"
       style="stroke-linejoin:round;stroke:url(#linearGradient2692);stroke-linecap:round;stroke-width:.95339;fill:url(#linearGradient2690)"
       d="m2.5254 4.524c0.6564 0 12.48 0.0314 12.989 0.0314 0 0.6154-0.024 9.9576-0.054 9.9576-4.559 0.018-11.659-0.013-12.986-0.013-0.0005-1.162 0.0514-7.5857 0.0514-9.976z" />
    <path
       id="path2509"
       style="fill:url(#linearGradient2687);fill-rule:evenodd"
       d="m2.8355 4c-0.4566 0-0.8345 0.4484-0.8345 0.9902v5.6328c0.0018 0.101 0.0441 0.216 0.1113 0.286 0.0672 0.071 0.1531 0.1 0.2503 0.088h0.0093l13.351-2.5081c0.155-0.029 0.276-0.1881 0.278-0.3741v-3.1246c0-0.5418-0.378-0.9902-0.834-0.9902h-12.332 0.0005z" />
    <path
       id="path2406"
       style="opacity:.35;stroke:#fff;stroke-width:1px;fill:none"
       d="m3.499 14v-8.5h11.5" />
  </g>
  <path
     style="opacity:0.2"
     inkscape:connector-curvature="0"
     d="m 10.698677,8.0388454 0,0 -4.3753987,7.1726916 c -0.03468,0.05689 -0.039141,0.116743 -0.012399,0.164569 0.026806,0.04782 0.080353,0.07523 0.1469672,0.07523 h 8.7631261 c 0.06654,0 0.120084,-0.0274 0.146968,-0.07516 0.0268,-0.04782 0.02235,-0.107757 -0.01233,-0.164643 L 10.980137,8.0388454 c -0.03402,-0.055851 -0.08526,-0.087854 -0.14073,-0.087854 -0.0554,-7.46e-5 -0.106717,0.032005 -0.14073,0.087854 z"
     id="path3" />
  <path
     style="opacity:0.2"
     inkscape:connector-curvature="0"
     d="m 10.635256,8.0001536 0,0 -4.3753994,7.1727674 c -0.049087,0.08035 -0.054064,0.167687 -0.013812,0.239574 0.040403,0.07175 0.117485,0.113104 0.2117258,0.113104 H 15.22097 c 0.09431,0 0.171476,-0.04121 0.211726,-0.113104 0.0404,-0.07181 0.03534,-0.159147 -0.01374,-0.239574 0.0055,0.0092 0.0073,0.01983 0.0084,0.03029 -0.0248,-0.05712 -0.341168,-0.575618 -4.383939,-7.2030667 -0.04782,-0.078496 -0.122239,-0.123501 -0.204077,-0.123501 -0.08184,0 -0.156252,0.045007 -0.204152,0.123501 z"
     id="path5" />
  <path
     style="fill:url(#XMLID_7_)"
     inkscape:connector-curvature="0"
     d="m 10.698677,7.9645814 0,0 -4.3753987,7.1726926 c -0.03468,0.05688 -0.039141,0.116742 -0.012399,0.164568 0.026806,0.04782 0.080353,0.07523 0.1469672,0.07523 h 8.7631261 c 0.06654,0 0.120084,-0.0274 0.146968,-0.07516 0.0268,-0.04782 0.02235,-0.107757 -0.01233,-0.164643 L 10.980137,7.9645814 c -0.03402,-0.05585 -0.08526,-0.087854 -0.14073,-0.087854 -0.0554,-7.46e-5 -0.106717,0.032005 -0.14073,0.087854 z"
     id="path12" />
  <path
     style="fill:url(#XMLID_8_)"
     inkscape:connector-curvature="0"
     d="m 10.916715,8.0032731 c -0.04249,-0.069733 -0.112138,-0.069733 -0.15469,0 L 6.3866993,15.176039 c -0.042555,0.06967 -0.010542,0.126769 0.071146,0.126769 H 15.22097 c 0.08169,0 0.113698,-0.05712 0.07121,-0.126769 L 10.916715,8.0032731 z"
     id="path19" />
  <path
     style="fill:url(#XMLID_9_)"
     inkscape:connector-curvature="0"
     d="M 6.4060824,15.292634 10.762025,8.1517263 c 0.04255,-0.069733 0.112138,-0.069733 0.15469,0 l 4.356016,7.1409077 c 0.04129,-0.01939 0.05117,-0.06438 0.01946,-0.116595 L 10.916714,8.0032731 c -0.04249,-0.069733 -0.112139,-0.069733 -0.154691,0 L 6.3866976,15.176039 c -0.031862,0.0522 -0.021908,0.09729 0.019384,0.116595 z"
     id="path26" />
  <path
     style="fill:url(#XMLID_10_)"
     inkscape:connector-curvature="0"
     d="m 10.251906,12.226505 c 1.794287,-0.488358 3.059816,-0.297203 3.059816,-0.297203 L 10.916715,8.0031985 c -0.04249,-0.069733 -0.112138,-0.069733 -0.15469,0 L 7.3456673,13.603875 c 0,0 1.1120259,-0.888937 2.9062387,-1.37737 z"
     id="path33" />
  <path
     style="fill:url(#XMLID_11_)"
     inkscape:connector-curvature="0"
     d="m 10.762025,8.1518002 c 0.04255,-0.069733 0.112138,-0.069733 0.15469,0 l 2.297424,3.7660648 c 0.06364,0.0063 0.09758,0.01144 0.09758,0.01144 L 10.916715,8.0032001 c -0.04249,-0.069733 -0.112138,-0.069733 -0.15469,0 L 7.3456673,13.603877 c 0,0 0.056588,-0.04508 0.1639746,-0.120233 L 10.762025,8.1518018 z"
     id="path40" />
  <path
     style="fill:url(#XMLID_12_)"
     inkscape:connector-curvature="0"
     d="m 10.396053,10.334042 c -0.03015,0 -0.05942,0.0124 -0.08028,0.03416 -0.02087,0.02176 -0.03223,0.05147 -0.03097,0.08154 l 0.109911,2.852843 c 0.0023,0.06015 0.05117,0.107163 0.111322,0.107163 h 0.659685 c 0.05986,0 0.108721,-0.04687 0.111321,-0.106717 l 0.121569,-2.852917 c 0.0014,-0.03016 -0.01,-0.06001 -0.03089,-0.08184 -0.02087,-0.02184 -0.0502,-0.03431 -0.08035,-0.03431 h -0.891313 z m 0.04047,3.229063 c -0.06142,0 -0.111397,0.05006 -0.111397,0.111395 v 0.810218 c 0,0.06134 0.04998,0.111396 0.111397,0.111396 h 0.810143 c 0.0615,0 0.111396,-0.05006 0.111396,-0.111396 V 13.6745 c 0,-0.06134 -0.0499,-0.111395 -0.111396,-0.111395 h -0.810143 z"
     id="path47" />
  <path
     inkscape:connector-curvature="0"
     d="m 10.396053,10.445437 h 0.891238 l -0.121569,2.852991 h -0.659685 l -0.109984,-2.852991 z m 0.04047,3.229063 h 0.810143 v 0.810218 h -0.81014 V 13.6745 z"
     id="path49" />
  <path
     style="fill:#262626"
     inkscape:connector-curvature="0"
     d="m 10.462592,12.171995 c 0.26631,-0.06632 0.519847,-0.11793 0.757862,-0.157364 l 0.06683,-1.56912 h -0.89124 l 0.06654,1.726484 z"
     id="path51" />
</svg>
