<?xml version="1.0" encoding="UTF-8" standalone="no"?>
<!-- Created with Inkscape (http://www.inkscape.org/) -->

<svg
   xmlns:dc="http://purl.org/dc/elements/1.1/"
   xmlns:cc="http://creativecommons.org/ns#"
   xmlns:rdf="http://www.w3.org/1999/02/22-rdf-syntax-ns#"
   xmlns:svg="http://www.w3.org/2000/svg"
   xmlns="http://www.w3.org/2000/svg"
   xmlns:xlink="http://www.w3.org/1999/xlink"
   xmlns:sodipodi="http://sodipodi.sourceforge.net/DTD/sodipodi-0.dtd"
   xmlns:inkscape="http://www.inkscape.org/namespaces/inkscape"
   id="svg3272"
   height="16"
   width="16"
   version="1.0"
   inkscape:version="0.48.1 r9760"
   sodipodi:docname="folder_unknown.svg">
  <metadata
     id="metadata35">
    <rdf:RDF>
      <cc:Work
         rdf:about="">
        <dc:format>image/svg+xml</dc:format>
        <dc:type
           rdf:resource="http://purl.org/dc/dcmitype/StillImage" />
        <dc:title />
      </cc:Work>
    </rdf:RDF>
  </metadata>
  <sodipodi:namedview
     pagecolor="#ffffff"
     bordercolor="#666666"
     borderopacity="1"
     objecttolerance="10"
     gridtolerance="10"
     guidetolerance="10"
     inkscape:pageopacity="0"
     inkscape:pageshadow="2"
     inkscape:window-width="1680"
     inkscape:window-height="973"
     id="namedview33"
     showgrid="false"
     inkscape:zoom="37.403268"
     inkscape:cx="9.1840797"
     inkscape:cy="5.2131046"
     inkscape:window-x="0"
     inkscape:window-y="24"
     inkscape:window-maximized="1"
     inkscape:current-layer="svg3272" />
  <defs
     id="defs3274">
    <linearGradient
       id="linearGradient2687"
       y2="24.628"
       gradientUnits="userSpaceOnUse"
       x2="20.055"
       gradientTransform="matrix(0.29669,0,0,0.35207,1.8805,2.1186)"
       y1="16.408"
       x1="18.031">
      <stop
         id="stop2687"
         style="stop-color:#fff;stop-opacity:.27451"
         offset="0" />
      <stop
         id="stop2689"
         style="stop-color:#fff;stop-opacity:.078431"
         offset="1" />
    </linearGradient>
    <linearGradient
       id="linearGradient2692"
       y2="4.0514"
       gradientUnits="userSpaceOnUse"
       x2="4.176"
       gradientTransform="matrix(1.0083,0,0,1.0006,-8.2398e-4,-0.0066205)"
       y1="14.993"
       x1="10.318">
      <stop
         id="stop3624"
         style="stop-color:#bb2b12"
         offset="0" />
      <stop
         id="stop3626"
         style="stop-color:#cd7233"
         offset="1" />
    </linearGradient>
    <linearGradient
       id="linearGradient2690"
       y2="238.4"
       gradientUnits="userSpaceOnUse"
       x2="169.23"
       gradientTransform="matrix(0.054893,0.013851,0.0025726,0.052482,-0.7128,-0.26741)"
       y1="58.583"
       x1="126.7">
      <stop
         id="stop3618"
         style="stop-color:#edb763"
         offset="0" />
      <stop
         id="stop3270"
         style="stop-color:#de7f32"
         offset=".5" />
      <stop
         id="stop3620"
         style="stop-color:#d24413"
         offset="1" />
    </linearGradient>
    <radialGradient
       id="radialGradient2677"
       xlink:href="#linearGradient5060"
       gradientUnits="userSpaceOnUse"
       cy="486.65"
       cx="605.71"
       gradientTransform="matrix(-2.7744,0,0,1.9697,112.76,-872.89)"
       r="117.14" />
    <radialGradient
       id="radialGradient2675"
       xlink:href="#linearGradient5060"
       gradientUnits="userSpaceOnUse"
       cy="486.65"
       cx="605.71"
       gradientTransform="matrix(2.7744,0,0,1.9697,-1891.6,-872.89)"
       r="117.14" />
    <linearGradient
       id="linearGradient2673"
       y2="609.51"
       gradientUnits="userSpaceOnUse"
       x2="302.86"
       gradientTransform="matrix(2.7744,0,0,1.9697,-1892.2,-872.89)"
       y1="366.65"
       x1="302.86">
      <stop
         id="stop5050"
         style="stop-opacity:0"
         offset="0" />
      <stop
         id="stop5056"
         offset=".5" />
      <stop
         id="stop5052"
         style="stop-opacity:0"
         offset="1" />
    </linearGradient>
    <linearGradient
       id="linearGradient5060">
      <stop
         id="stop5062"
         offset="0" />
      <stop
         id="stop5064"
         style="stop-opacity:0"
         offset="1" />
    </linearGradient>
    <linearGradient
       inkscape:collect="always"
       xlink:href="#linearGradient2687"
       id="linearGradient3014"
       gradientUnits="userSpaceOnUse"
       gradientTransform="matrix(0.29669,0,0,0.35207,1.8805,2.1186)"
       x1="18.031"
       y1="16.408"
       x2="20.055"
       y2="24.628" />
    <linearGradient
       inkscape:collect="always"
       xlink:href="#linearGradient2690"
       id="linearGradient3017"
       gradientUnits="userSpaceOnUse"
       gradientTransform="matrix(0.054893,0.013851,0.0025726,0.052482,-0.7128,-0.26741)"
       x1="126.7"
       y1="58.583"
       x2="169.23"
       y2="238.4" />
    <linearGradient
       inkscape:collect="always"
       xlink:href="#linearGradient2692"
       id="linearGradient3019"
       gradientUnits="userSpaceOnUse"
       gradientTransform="matrix(1.0083,0,0,1.0006,-8.2398e-4,-0.0066205)"
       x1="10.318"
       y1="14.993"
       x2="4.176"
       y2="4.0514" />
  </defs>
  <g
     transform="matrix(0.36395,0,0,0.34457,-0.64485,-0.38545)"
     id="layer6">
    <g
       transform="matrix(0.021652,0,0,0.014857,43.008,42.685)"
       id="g2488">
      <rect
         x="-1559.3"
         y="-150.7"
         width="1339.6"
         height="478.35999"
         style="opacity:0.40206;fill:url(#linearGradient2673)"
         id="rect2490" />
      <path
         inkscape:connector-curvature="0"
         d="m -219.62,-150.68 v 478.33 c 142.88,0.9 345.4,-107.17 345.4,-239.2 0,-132.02 -159.44,-239.13 -345.4,-239.13 z"
         style="opacity:0.40206;fill:url(#radialGradient2675)"
         id="path2492" />
      <path
         inkscape:connector-curvature="0"
         d="m -1559.3,-150.68 v 478.33 c -142.8,0.9 -345.4,-107.17 -345.4,-239.2 0,-132.02 159.5,-239.13 345.4,-239.13 z"
         style="opacity:0.40206;fill:url(#radialGradient2677)"
         id="path2494" />
    </g>
  </g>
  <path
     inkscape:connector-curvature="0"
     d="m 0.6015,1.5215 c -0.05626,0 -0.10449,0.0603 -0.10449,0.1226 0,4.6046 0.00337,8.6509 -6.6e-4,12.857 4.7064,-0.024 9.4152,-0.048 14.123,-0.065 -0.417,0 -1.112,-0.07 -1.103,-0.941 0.004,-3.5967 0.023,-7.408 0.011,-10.98 l -6.0517,-5e-4 c -0.4775,0 -1.0962,-0.993 -1.5261,-0.993 h -5.3477 z"
     style="fill:#f62e2e;stroke:#a8a8a8;stroke-width:0.97899997000000005;stroke-linecap:round;stroke-linejoin:round;fill-opacity:1"
     id="rect2196" />
  <path
     inkscape:connector-curvature="0"
     d="m 2.5254,4.524 c 0.6564,0 12.48,0.0314 12.989,0.0314 0,0.6154 -0.024,9.9576 -0.054,9.9576 C 10.9014,14.531 3.8014,14.5 2.4744,14.5 2.4739,13.338 2.5258,6.9143 2.5258,4.524 z"
     style="fill:url(#linearGradient3017);stroke:url(#linearGradient3019);stroke-width:0.95339;stroke-linecap:round;stroke-linejoin:round"
     id="rect3086" />
  <path
     inkscape:connector-curvature="0"
     d="M 2.8355,4 C 2.3789,4 2.001,4.4484 2.001,4.9902 v 5.6328 c 0.0018,0.101 0.0441,0.216 0.1113,0.286 0.0672,0.071 0.1531,0.1 0.2503,0.088 h 0.0093 l 13.351,-2.5081 c 0.155,-0.029 0.276,-0.1881 0.278,-0.3741 V 4.9902 C 16.0009,4.4484 15.6229,4 15.1669,4 h -12.332 5e-4 z"
     style="fill:url(#linearGradient3014);fill-rule:evenodd"
     id="path2509" />
  <path
     inkscape:connector-curvature="0"
     d="M 3.499,14 V 5.5 h 11.5"
     style="opacity:0.35;fill:none;stroke:#ffffff;stroke-width:1px"
     id="path2406" />
  <path
     inkscape:connector-curvature="0"
     id="path9053"
     style="opacity:0.96209913"
     d="m 12.498706,12.87843 c 0.256888,-0.659461 0.670004,-1.230505 1.474933,-1.418737 0.864345,-0.232283 1.758442,-0.60198 2.007816,-1.37745 0.290007,-0.7270626 -0.311466,-1.6466052 -1.181802,-2.1097419 -0.958733,-0.570839 -2.337663,-0.7421287 -3.014409,-0.09115 -0.33624,0.3136213 -0.468662,1.075053 0.111943,1.3201637 0.339598,0.1433662 0.588184,-0.010158 0.698524,-0.2000109 0.08349,-0.1436123 0.0784,-0.3055425 0.09453,-0.4464683 0.01838,-0.1606139 0.314416,-0.3619725 0.557072,-0.3924871 0.202789,-0.025533 0.386394,0.014736 0.414357,0.019444 0.644652,0.1064303 1.096888,0.6633982 1.180677,1.1443072 0.08378,0.4808988 -0.426285,0.9413663 -1.046968,1.3364943 -0.620674,0.395131 -1.301549,0.854114 -1.583974,1.527732 -0.108146,0.25617 -0.167705,0.333562 -0.195272,0.444038 -0.022,0.08828 0.25641,0.194021 0.482785,0.243825 z m -0.637426,0.764462 c -0.546754,-0.266607 -1.201895,0.204258 -1.036371,0.750353 0.111828,0.573008 1.000088,0.818201 1.357716,0.373766 0.315896,-0.329652 0.145968,-0.934564 -0.321352,-1.124102 v 0 z" />
  <path
     inkscape:connector-curvature="0"
     id="path3298"
     style="opacity:0.40816327;fill:#ffffff"
     d="m 12.382059,13.154737 c 0.256887,-0.659461 0.670004,-1.230505 1.474933,-1.418737 0.864345,-0.232283 1.758442,-0.60198 2.007816,-1.37745 0.290011,-0.7270606 -0.311466,-1.6466051 -1.181802,-2.1097418 -0.958733,-0.5708389 -2.337663,-0.7421287 -3.014409,-0.09115 -0.33624,0.3136212 -0.468662,1.075053 0.111943,1.3201638 0.339598,0.1433662 0.588184,-0.010158 0.698524,-0.200011 0.08356,-0.1437782 0.07847,-0.3057083 0.0946,-0.4466341 0.01838,-0.1606138 0.314416,-0.3619724 0.557072,-0.392487 0.202789,-0.025533 0.386394,0.014735 0.414357,0.019444 0.644652,0.1064303 1.096888,0.6633983 1.180677,1.1443073 0.08378,0.4808988 -0.426285,0.9413668 -1.046968,1.3364948 -0.620674,0.395131 -1.301549,0.854114 -1.583974,1.527731 -0.108146,0.25617 -0.167705,0.333562 -0.195272,0.444038 -0.02199,0.08828 0.256411,0.194021 0.482785,0.243825 z m -0.637426,0.764462 c -0.546754,-0.266607 -1.201895,0.204258 -1.036371,0.750353 0.111828,0.573008 1.000087,0.818202 1.357716,0.373766 0.315897,-0.329652 0.145968,-0.934564 -0.321352,-1.124102 z" />
</svg>
