<?xml version="1.0" encoding="UTF-8" standalone="no"?>
<!-- Created with Inkscape (http://www.inkscape.org/) -->

<svg
   xmlns:dc="http://purl.org/dc/elements/1.1/"
   xmlns:cc="http://creativecommons.org/ns#"
   xmlns:rdf="http://www.w3.org/1999/02/22-rdf-syntax-ns#"
   xmlns:svg="http://www.w3.org/2000/svg"
   xmlns="http://www.w3.org/2000/svg"
   xmlns:xlink="http://www.w3.org/1999/xlink"
   xmlns:sodipodi="http://sodipodi.sourceforge.net/DTD/sodipodi-0.dtd"
   xmlns:inkscape="http://www.inkscape.org/namespaces/inkscape"
   id="svg3272"
   height="16"
   width="16"
   version="1.0"
   inkscape:version="0.48.1 r9760"
   sodipodi:docname="folder_ok.svg">
  <metadata
     id="metadata35">
    <rdf:RDF>
      <cc:Work
         rdf:about="">
        <dc:format>image/svg+xml</dc:format>
        <dc:type
           rdf:resource="http://purl.org/dc/dcmitype/StillImage" />
        <dc:title></dc:title>
      </cc:Work>
    </rdf:RDF>
  </metadata>
  <sodipodi:namedview
     pagecolor="#ffffff"
     bordercolor="#666666"
     borderopacity="1"
     objecttolerance="10"
     gridtolerance="10"
     guidetolerance="10"
     inkscape:pageopacity="0"
     inkscape:pageshadow="2"
     inkscape:window-width="1680"
     inkscape:window-height="973"
     id="namedview33"
     showgrid="false"
     inkscape:zoom="24.678445"
     inkscape:cx="8.7055468"
     inkscape:cy="2.4584642"
     inkscape:window-x="0"
     inkscape:window-y="24"
     inkscape:window-maximized="1"
     inkscape:current-layer="svg3272" />
  <defs
     id="defs3274">
    <linearGradient
       id="linearGradient2687"
       y2="24.628"
       gradientUnits="userSpaceOnUse"
       x2="20.055"
       gradientTransform="matrix(0.29669,0,0,0.35207,1.8805,2.1186)"
       y1="16.408"
       x1="18.031">
      <stop
         id="stop2687"
         style="stop-color:#fff;stop-opacity:.27451"
         offset="0" />
      <stop
         id="stop2689"
         style="stop-color:#fff;stop-opacity:.078431"
         offset="1" />
    </linearGradient>
    <linearGradient
       id="linearGradient2692"
       y2="4.0514"
       gradientUnits="userSpaceOnUse"
       x2="4.176"
       gradientTransform="matrix(1.0083,0,0,1.0006,-8.2398e-4,-0.0066205)"
       y1="14.993"
       x1="10.318">
      <stop
         id="stop3624"
         style="stop-color:#bb2b12"
         offset="0" />
      <stop
         id="stop3626"
         style="stop-color:#cd7233"
         offset="1" />
    </linearGradient>
    <linearGradient
       id="linearGradient2690"
       y2="238.4"
       gradientUnits="userSpaceOnUse"
       x2="169.23"
       gradientTransform="matrix(0.054893,0.013851,0.0025726,0.052482,-0.7128,-0.26741)"
       y1="58.583"
       x1="126.7">
      <stop
         id="stop3618"
         style="stop-color:#edb763"
         offset="0" />
      <stop
         id="stop3270"
         style="stop-color:#de7f32"
         offset=".5" />
      <stop
         id="stop3620"
         style="stop-color:#d24413"
         offset="1" />
    </linearGradient>
    <radialGradient
       id="radialGradient2677"
       xlink:href="#linearGradient5060"
       gradientUnits="userSpaceOnUse"
       cy="486.65"
       cx="605.71"
       gradientTransform="matrix(-2.7744,0,0,1.9697,112.76,-872.89)"
       r="117.14" />
    <radialGradient
       id="radialGradient2675"
       xlink:href="#linearGradient5060"
       gradientUnits="userSpaceOnUse"
       cy="486.65"
       cx="605.71"
       gradientTransform="matrix(2.7744,0,0,1.9697,-1891.6,-872.89)"
       r="117.14" />
    <linearGradient
       id="linearGradient2673"
       y2="609.51"
       gradientUnits="userSpaceOnUse"
       x2="302.86"
       gradientTransform="matrix(2.7744,0,0,1.9697,-1892.2,-872.89)"
       y1="366.65"
       x1="302.86">
      <stop
         id="stop5050"
         style="stop-opacity:0"
         offset="0" />
      <stop
         id="stop5056"
         offset=".5" />
      <stop
         id="stop5052"
         style="stop-opacity:0"
         offset="1" />
    </linearGradient>
    <linearGradient
       id="linearGradient5060">
      <stop
         id="stop5062"
         offset="0" />
      <stop
         id="stop5064"
         style="stop-opacity:0"
         offset="1" />
    </linearGradient>
    <radialGradient
       id="radialGradient4811"
       gradientUnits="userSpaceOnUse"
       cy="19.031"
       cx="11.25"
       gradientTransform="matrix(1,0,0,0.28295,0,13.646)"
       r="8.0625">
      <stop
         id="stop2487"
         style="stop-color:#0d0d0d"
         offset="0" />
      <stop
         id="stop2489"
         style="stop-color:#0d0d0d;stop-opacity:0"
         offset="1" />
    </radialGradient>
    <linearGradient
       id="linearGradient4813"
       y2="31.138"
       gradientUnits="userSpaceOnUse"
       x2="-93.087997"
       gradientTransform="matrix(0.51128,-0.12167,0.12241,0.50821,56.783,-3.2077)"
       y1="2.0690999"
       x1="-86.128998">
      <stop
         id="stop2266"
         style="stop-color:#d7e866"
         offset="0" />
      <stop
         id="stop2268"
         style="stop-color:#8cab2a"
         offset="1" />
    </linearGradient>
    <linearGradient
       y2="47.759998"
       x2="20.493999"
       y1="6.0098"
       x1="20.493999"
       gradientTransform="matrix(0.50259,0,0,0.49957,1.194,0.76653)"
       gradientUnits="userSpaceOnUse"
       id="linearGradient3019"
       xlink:href="#linearGradient3597"
       inkscape:collect="always" />
    <linearGradient
       id="linearGradient3597"
       y2="47.759998"
       gradientUnits="userSpaceOnUse"
       x2="20.493999"
       gradientTransform="matrix(0.50259,0,0,0.49957,1.194,0.76653)"
       y1="6.0098"
       x1="20.493999">
      <stop
         id="stop3402"
         style="stop-color:#fff"
         offset="0" />
      <stop
         id="stop3404"
         style="stop-color:#fff;stop-opacity:0"
         offset="1" />
    </linearGradient>
    <linearGradient
       y2="47.759998"
       x2="20.493999"
       y1="6.0098"
       x1="20.493999"
       gradientTransform="matrix(0.50259,0,0,0.49957,1.194,0.76653)"
       gradientUnits="userSpaceOnUse"
       id="linearGradient4169"
       xlink:href="#linearGradient3597"
       inkscape:collect="always" />
    <linearGradient
       inkscape:collect="always"
       xlink:href="#linearGradient2687"
       id="linearGradient4293"
       gradientUnits="userSpaceOnUse"
       gradientTransform="matrix(0.29669,0,0,0.35207,1.8805,2.1186)"
       x1="18.031"
       y1="16.408"
       x2="20.055"
       y2="24.628" />
    <linearGradient
       inkscape:collect="always"
       xlink:href="#linearGradient2690"
       id="linearGradient4296"
       gradientUnits="userSpaceOnUse"
       gradientTransform="matrix(0.054893,0.013851,0.0025726,0.052482,-0.7128,-0.26741)"
       x1="126.7"
       y1="58.583"
       x2="169.23"
       y2="238.4" />
    <linearGradient
       inkscape:collect="always"
       xlink:href="#linearGradient2692"
       id="linearGradient4298"
       gradientUnits="userSpaceOnUse"
       gradientTransform="matrix(1.0083,0,0,1.0006,-8.2398e-4,-0.0066205)"
       x1="10.318"
       y1="14.993"
       x2="4.176"
       y2="4.0514" />
  </defs>
  <g
     transform="matrix(0.36395,0,0,0.34457,-0.64485,-0.38545)"
     id="layer6">
    <g
       transform="matrix(0.021652,0,0,0.014857,43.008,42.685)"
       id="g2488">
      <rect
         x="-1559.3"
         y="-150.7"
         width="1339.6"
         height="478.35999"
         style="opacity:0.40206;fill:url(#linearGradient2673)"
         id="rect2490" />
      <path
         inkscape:connector-curvature="0"
         d="m -219.62,-150.68 v 478.33 c 142.88,0.9 345.4,-107.17 345.4,-239.2 0,-132.02 -159.44,-239.13 -345.4,-239.13 z"
         style="opacity:0.40206;fill:url(#radialGradient2675)"
         id="path2492" />
      <path
         inkscape:connector-curvature="0"
         d="m -1559.3,-150.68 v 478.33 c -142.8,0.9 -345.4,-107.17 -345.4,-239.2 0,-132.02 159.5,-239.13 345.4,-239.13 z"
         style="opacity:0.40206;fill:url(#radialGradient2677)"
         id="path2494" />
    </g>
  </g>
  <path
     inkscape:connector-curvature="0"
     d="m 0.6015,1.5215 c -0.05626,0 -0.10449,0.0603 -0.10449,0.1226 0,4.6046 0.00337,8.6509 -6.6e-4,12.857 4.7064,-0.024 9.4152,-0.048 14.123,-0.065 -0.417,0 -1.112,-0.07 -1.103,-0.941 0.004,-3.5967 0.023,-7.408 0.011,-10.98 l -6.0517,-5e-4 c -0.4775,0 -1.0962,-0.993 -1.5261,-0.993 h -5.3477 z"
     style="fill:#d3e381;stroke:#a8a8a8;stroke-width:0.97899997000000005;stroke-linecap:round;stroke-linejoin:round;fill-opacity:1"
     id="rect2196" />
  <path
     inkscape:connector-curvature="0"
     d="m 2.5254,4.524 c 0.6564,0 12.48,0.0314 12.989,0.0314 0,0.6154 -0.024,9.9576 -0.054,9.9576 C 10.9014,14.531 3.8014,14.5 2.4744,14.5 2.4739,13.338 2.5258,6.9143 2.5258,4.524 z"
     style="fill:url(#linearGradient4296);stroke:url(#linearGradient4298);stroke-width:0.95339;stroke-linecap:round;stroke-linejoin:round"
     id="rect3086" />
  <path
     inkscape:connector-curvature="0"
     d="M 2.8355,4 C 2.3789,4 2.001,4.4484 2.001,4.9902 v 5.6328 c 0.0018,0.101 0.0441,0.216 0.1113,0.286 0.0672,0.071 0.1531,0.1 0.2503,0.088 h 0.0093 l 13.351,-2.5081 c 0.155,-0.029 0.276,-0.1881 0.278,-0.3741 V 4.9902 C 16.0009,4.4484 15.6229,4 15.1669,4 h -12.332 5e-4 z"
     style="fill:url(#linearGradient4293);fill-rule:evenodd"
     id="path2509" />
  <path
     inkscape:connector-curvature="0"
     d="M 3.499,14 V 5.5 h 11.5"
     style="opacity:0.35;fill:none;stroke:#ffffff;stroke-width:1px"
     id="path2406" />
  <g
     transform="matrix(0.37362173,0,0,0.35586806,7.8351477,7.7046195)"
     id="layer1-7">
    <path
       inkscape:connector-curvature="0"
       id="path4346"
       style="opacity:0.16292001;fill:url(#radialGradient4811)"
       d="m 19.312,19.031 a 8.0625,2.2812 0 1 1 -16.125,0 8.0625,2.2812 0 1 1 16.125,0 z"
       transform="matrix(1.4884,0,0,1.4466,-4.7442,-6.8302)" />
    <path
       inkscape:connector-curvature="0"
       id="path1542"
       style="fill:url(#linearGradient4813);stroke:#699536;stroke-width:1.00279999;stroke-linecap:round;stroke-linejoin:round"
       d="M 18.175,3.5051 C 17.89368,3.476722 17.614,3.61368 17.46946,3.8766 l -6.158,11.2 -3.9593,-3.13 c -0.3527,-0.191 -0.7927,-0.068 -0.9855,0.283 l -1.7756,2.2659 c -0.19272,0.35056 -0.063069,0.78783 0.28962,0.97939 0,0 7.2294,5.935 7.2384,5.9394 0.08266,0.0449 0.1691,0.06749 0.25697,0.07853 0.28704,0.03605 0.58079,-0.098 0.72834,-0.3664 l 8.305,-15.105 C 21.60211,5.67085 21.47246,5.23359 21.11977,5.04203 l -2.664,-1.4539 C 18.3676,3.540239 18.26977,3.513963 18.176,3.504504 z" />
    <path
       inkscape:connector-curvature="0"
       id="path1544"
       style="opacity:0.4;fill:none;stroke:url(#linearGradient4169);stroke-width:1.00279999;stroke-linecap:round"
       d="m 18.214,4.6151 -6.593,11.979 -4.578,-3.601 c -0.5,0.6 -0.8489,1.092 -1.4161,1.8 0,0 6.6812,5.4506 6.7617,5.5344 0.25102,-0.4046 7.8917,-14.328 8.0035,-14.541 C 20.22467,5.67116 18.272,4.6613 18.2143,4.615 z" />
  </g>
</svg>
