<?xml version="1.0" encoding="UTF-8" standalone="no"?>
<!-- Created with Inkscape (http://www.inkscape.org/) -->

<svg
   xmlns:dc="http://purl.org/dc/elements/1.1/"
   xmlns:cc="http://creativecommons.org/ns#"
   xmlns:rdf="http://www.w3.org/1999/02/22-rdf-syntax-ns#"
   xmlns:svg="http://www.w3.org/2000/svg"
   xmlns="http://www.w3.org/2000/svg"
   xmlns:sodipodi="http://sodipodi.sourceforge.net/DTD/sodipodi-0.dtd"
   xmlns:inkscape="http://www.inkscape.org/namespaces/inkscape"
   width="362.70145"
   height="214.69574"
   id="svg3217"
   version="1.1"
   inkscape:version="0.48.3.1 r9886"
   sodipodi:docname="OMG-Logo.svg">
  <defs
     id="defs3219" />
  <sodipodi:namedview
     id="base"
     pagecolor="#ffffff"
     bordercolor="#666666"
     borderopacity="1.0"
     inkscape:pageopacity="0.0"
     inkscape:pageshadow="2"
     inkscape:zoom="0.80770671"
     inkscape:cx="190.54083"
     inkscape:cy="-21.710653"
     inkscape:document-units="px"
     showgrid="false"
     showguides="true"
     inkscape:guide-bbox="true"
     inkscape:window-width="1920"
     inkscape:window-height="1025"
     inkscape:window-x="-2"
     inkscape:window-y="-3"
     inkscape:window-maximized="1"
     inkscape:current-layer="svg3217"
     fit-margin-top="0"
     fit-margin-left="0"
     fit-margin-right="0"
     fit-margin-bottom="0" />
  <metadata
     id="metadata3222">
    <rdf:RDF>
      <cc:Work
         rdf:about="">
        <dc:format>image/svg+xml</dc:format>
        <dc:type
           rdf:resource="http://purl.org/dc/dcmitype/StillImage" />
        <dc:title></dc:title>
      </cc:Work>
    </rdf:RDF>
  </metadata>
  <path
     inkscape:connector-curvature="0"
     style="fill:#999999;fill-opacity:1;stroke:#cccccc;stroke-width:2.67217374;stroke-linecap:butt;stroke-linejoin:miter;stroke-miterlimit:4;stroke-opacity:1;stroke-dasharray:none;display:inline"
     d="m 2.3895669,24.568607 357.7825131,0"
     id="path2816-88-0" />
  <path
     inkscape:connector-curvature="0"
     style="fill:#999999;stroke:#cccccc;stroke-width:2.67217374;stroke-linecap:butt;stroke-linejoin:miter;stroke-miterlimit:4;stroke-opacity:1;stroke-dasharray:none;display:inline"
     d="m 1.5886369,65.608507 357.7825131,0"
     id="path2816-8-4-1" />
  <path
     inkscape:connector-curvature="0"
     style="fill:#999999;stroke:#cccccc;stroke-width:2.67217374;stroke-linecap:butt;stroke-linejoin:miter;stroke-miterlimit:4;stroke-opacity:1;stroke-dasharray:none;display:inline"
     d="m 1.3360869,109.97742 357.7825131,0"
     id="path2816-4-3-9" />
  <path
     inkscape:connector-curvature="0"
     style="fill:#999999;stroke:#cccccc;stroke-width:2.67217374;stroke-linecap:butt;stroke-linejoin:miter;stroke-miterlimit:4;stroke-opacity:1;stroke-dasharray:none;display:inline"
     d="m 2.0937069,154.4506 357.7825131,0"
     id="path2816-1-1-6" />
  <path
     inkscape:connector-curvature="0"
     style="fill:#999999;stroke:#cccccc;stroke-width:2.67217374;stroke-linecap:butt;stroke-linejoin:miter;stroke-miterlimit:4;stroke-opacity:1;stroke-dasharray:none;display:inline"
     d="m 1.6752769,197.94952 357.7825131,0"
     id="path2816-9-4-2" />
  <path
     inkscape:connector-curvature="0"
     style="fill:#999999;stroke:#cccccc;stroke-width:2.99200296;stroke-linecap:butt;stroke-linejoin:miter;stroke-miterlimit:4;stroke-opacity:1;stroke-dasharray:none;display:inline"
     d="m 1.7858969,23.320087 0.17857,175.865273"
     id="path2867-9-1"
     sodipodi:nodetypes="cc" />
  <path
     inkscape:connector-curvature="0"
     style="fill:#999999;stroke:#cccccc;stroke-width:6.78880739;stroke-linecap:butt;stroke-linejoin:miter;stroke-miterlimit:4;stroke-opacity:1;stroke-dasharray:none;display:inline"
     d="m 359.30706,23.345957 0,175.865273"
     id="path2867-87-2-2"
     sodipodi:nodetypes="cc" />
  <path
     inkscape:connector-curvature="0"
     style="fill:#999999;stroke:#cccccc;stroke-width:2.99200296;stroke-linecap:butt;stroke-linejoin:miter;stroke-miterlimit:4;stroke-opacity:1;stroke-dasharray:none;display:inline"
     d="m 351.07161,23.794137 0,174.615283"
     id="path2867-87-8-0-0" />
  <path
     sodipodi:type="arc"
     style="fill:none;stroke:#000000;stroke-width:2;stroke-miterlimit:4;stroke-opacity:1;stroke-dasharray:none;display:inline"
     id="path3708-6-7"
     sodipodi:cx="185.61552"
     sodipodi:cy="184.89368"
     sodipodi:rx="35.102802"
     sodipodi:ry="40.153561"
     d="m 220.71833,184.89368 a 35.102802,40.153561 0 1 1 -70.20561,0 35.102802,40.153561 0 1 1 70.20561,0 z"
     transform="matrix(0.88805964,0,0,0.88956156,-111.35427,-55.483893)" />
  <path
     inkscape:connector-curvature="0"
     style="fill:none;stroke:#000000;stroke-width:2;stroke-linecap:butt;stroke-linejoin:miter;stroke-miterlimit:4;stroke-opacity:1;stroke-dasharray:none;display:inline"
     d="m 143.63949,178.94349 0,-111.621853 33.79235,19.51003 33.64529,-19.42512 0,112.042013"
     id="path3710-8-3" />
  <path
     sodipodi:type="arc"
     style="fill:none;stroke:#000000;stroke-width:2;stroke-linecap:butt;stroke-miterlimit:4;stroke-opacity:1;stroke-dasharray:none;display:inline"
     id="path3738-9-11"
     sodipodi:cx="254.82143"
     sodipodi:cy="250.93361"
     sodipodi:rx="14.107142"
     sodipodi:ry="17.5"
     d="m 268.92857,250.93361 a 14.107142,17.5 0 1 1 -28.21429,0 14.107142,17.5 0 1 1 28.21429,0 z"
     transform="matrix(0.99604079,0,0,1.1192574,-124.34806,-104.40031)" />
  <path
     sodipodi:type="arc"
     style="fill:none;stroke:#000000;stroke-width:2;stroke-linecap:butt;stroke-miterlimit:4;stroke-opacity:1;stroke-dasharray:none;display:inline"
     id="path3738-2-2-9"
     sodipodi:cx="254.82143"
     sodipodi:cy="250.93361"
     sodipodi:rx="14.107142"
     sodipodi:ry="17.5"
     d="m 268.92857,250.93361 a 14.107142,17.5 0 1 1 -28.21429,0 14.107142,17.5 0 1 1 28.21429,0 z"
     transform="matrix(0.99604079,0,0,1.1192574,-57.026633,-104.40032)" />
  <path
     inkscape:connector-curvature="0"
     style="fill:none;stroke:#000000;stroke-width:1.99268019;stroke-linecap:butt;stroke-linejoin:miter;stroke-miterlimit:4;stroke-opacity:1;stroke-dasharray:none;display:inline"
     d="m 313.57394,66.031517 c -43.36148,-1.34637 -45.54963,41.279133 -43.3962,63.385413 2.92752,30.05275 56.49058,38.54326 56.25468,-17.30089 l -26.78851,0"
     id="path3764-6-0"
     sodipodi:nodetypes="cscc" />
  <path
     inkscape:connector-curvature="0"
     style="fill:none;stroke:#000000;stroke-width:1.5;stroke-linecap:butt;stroke-linejoin:miter;stroke-miterlimit:4;stroke-opacity:1;stroke-dasharray:none;display:inline"
     d="m 293.60751,69.045587 c 48.60967,-7.00995 33.1586,-93.2729 7.56128,-61.1580901 -22.21947,27.8769201 13.01828,194.7764531 -8.74475,204.5859231 -9.17902,4.13736 -21.2687,-0.88506 -22.15112,-9.57477 -0.8303,-8.17632 6.11632,-20.33342 16.93139,-8.22544"
     id="path3766-6-5"
     sodipodi:nodetypes="cssss" />
  <path
     inkscape:connector-curvature="0"
     style="fill:none;stroke:#000000;stroke-width:4;stroke-linecap:butt;stroke-linejoin:miter;stroke-miterlimit:4;stroke-opacity:1;stroke-dasharray:none;display:inline"
     d="m 143.76078,74.392707 33.79235,19.51002 33.64529,-19.42511"
     id="path3710-4-4-6"
     sodipodi:nodetypes="ccc" />
  <path
     sodipodi:type="arc"
     style="fill:#000080;fill-opacity:1;stroke:none;display:inline"
     id="path3860-9-7"
     sodipodi:cx="255.06352"
     sodipodi:cy="267.22113"
     sodipodi:rx="4.5456862"
     sodipodi:ry="6.3134532"
     d="m 259.60921,267.22113 a 4.5456862,6.3134532 0 1 1 -9.09137,0 4.5456862,6.3134532 0 1 1 9.09137,0 z"
     transform="translate(-125.56616,-78.428643)" />
  <path
     transform="translate(-58.896103,-78.176113)"
     sodipodi:type="arc"
     style="fill:#000080;fill-opacity:1;stroke:none;display:inline"
     id="path3860-8-5-7"
     sodipodi:cx="255.06352"
     sodipodi:cy="267.22113"
     sodipodi:rx="4.5456862"
     sodipodi:ry="6.3134532"
     d="m 259.60921,267.22113 a 4.5456862,6.3134532 0 1 1 -9.09137,0 4.5456862,6.3134532 0 1 1 9.09137,0 z" />
  <path
     inkscape:connector-curvature="0"
     id="path2979-4"
     d="m 143.63949,153.1846 0,-85.862963 33.79235,19.51003 33.64529,-19.42512 0,86.788203"
     style="fill:none;stroke:#000000;stroke-width:4;stroke-linecap:butt;stroke-linejoin:miter;stroke-miterlimit:4;stroke-opacity:1;stroke-dasharray:none;display:inline"
     sodipodi:nodetypes="ccccc" />
  <path
     transform="matrix(0.88805964,0,0,0.88956156,-111.35427,-55.483893)"
     d="m 220.71833,184.89368 a 35.102802,40.153561 0 1 1 -70.20561,0 35.102802,40.153561 0 1 1 70.20561,0 z"
     sodipodi:ry="40.153561"
     sodipodi:rx="35.102802"
     sodipodi:cy="184.89368"
     sodipodi:cx="185.61552"
     id="path3753-0"
     style="fill:none;stroke:#000000;stroke-width:3.3752985;stroke-miterlimit:4;stroke-opacity:1;stroke-dasharray:none;display:inline"
     sodipodi:type="arc" />
  <path
     inkscape:connector-curvature="0"
     sodipodi:nodetypes="cscc"
     id="path3755-6"
     d="m 313.57394,66.031517 c -43.36148,-1.34637 -45.54963,41.279133 -43.3962,63.385413 2.92752,30.05275 56.49058,38.54326 56.25468,-17.30089 l -26.78851,0"
     style="fill:none;stroke:#000000;stroke-width:4;stroke-linecap:butt;stroke-linejoin:miter;stroke-miterlimit:4;stroke-opacity:1;stroke-dasharray:none;display:inline" />
  <path
     sodipodi:type="arc"
     style="fill:none;stroke:#000000;stroke-width:3.04303622;stroke-linecap:butt;stroke-miterlimit:4;stroke-opacity:1;stroke-dasharray:none;display:inline"
     id="path3836-4"
     sodipodi:cx="178.797"
     sodipodi:cy="712.1933"
     sodipodi:rx="18.182745"
     sodipodi:ry="29.546961"
     d="m 196.97974,712.1933 a 18.182745,29.546961 0 1 1 -36.36549,0 18.182745,29.546961 0 1 1 36.36549,0 z"
     transform="matrix(1.0388606,-0.47904892,0.5038118,0.98779947,-491.2516,-508.86898)" />
  <path
     inkscape:connector-curvature="0"
     style="fill:#000000;fill-opacity:1;stroke:#000000;stroke-width:1px;stroke-linecap:butt;stroke-linejoin:miter;stroke-opacity:1;display:inline"
     d="m 40.172957,77.920497 c 14.66991,1.18232 37.7442,14.25851 37.37564,51.644053 4.79822,-6.65017 12.46518,-14.59423 2.65165,-40.406103 -11.47839,-20.56827 -39.65634,-15.36802 -40.02729,-11.23795 z"
     id="path3838-7"
     sodipodi:nodetypes="cccc" />
  <path
     inkscape:connector-curvature="0"
     style="fill:#000000;fill-opacity:1;stroke:#000000;stroke-width:1px;stroke-linecap:butt;stroke-linejoin:miter;stroke-opacity:1;display:inline"
     d="m 66.477417,140.36054 c -14.66991,-1.18232 -37.7442,-14.25851 -37.37564,-51.644053 -4.79822,6.65017 -12.46518,14.594233 -2.65165,40.406103 11.47839,20.56827 39.65634,15.36802 40.02729,11.23795 z"
     id="path3838-1-4"
     sodipodi:nodetypes="cccc" />
  <path
     inkscape:connector-curvature="0"
     style="fill:#000000;fill-opacity:1;stroke:#000000;stroke-width:1px;stroke-linecap:butt;stroke-linejoin:miter;stroke-opacity:1;display:inline"
     d="m 118.73892,148.25152 10.34026,-5.96995 9.44325,5.19062 -9.654,-2.65684 -10.12951,3.43617 z"
     id="path3974"
     sodipodi:nodetypes="ccccc" />
  <path
     inkscape:connector-curvature="0"
     style="fill:#000000;fill-opacity:1;stroke:#000000;stroke-width:1px;stroke-linecap:butt;stroke-linejoin:miter;stroke-opacity:1;display:inline"
     d="m 186.70431,148.37936 10.34026,-5.96995 9.44325,5.19062 -9.654,-2.65684 -10.12951,3.43617 z"
     id="path3974-3"
     sodipodi:nodetypes="ccccc" />
</svg>
