<?xml version="1.0" encoding="UTF-8" standalone="no"?>
<!-- Created with Inkscape (http://www.inkscape.org/) -->

<svg
   xmlns:dc="http://purl.org/dc/elements/1.1/"
   xmlns:cc="http://creativecommons.org/ns#"
   xmlns:rdf="http://www.w3.org/1999/02/22-rdf-syntax-ns#"
   xmlns:svg="http://www.w3.org/2000/svg"
   xmlns="http://www.w3.org/2000/svg"
   xmlns:sodipodi="http://sodipodi.sourceforge.net/DTD/sodipodi-0.dtd"
   xmlns:inkscape="http://www.inkscape.org/namespaces/inkscape"
   width="220"
   height="220"
   id="svg3217"
   version="1.1"
   inkscape:version="0.48.3.1 r9886"
   sodipodi:docname="omg.svg">
  <defs
     id="defs3219" />
  <sodipodi:namedview
     id="base"
     pagecolor="#ffffff"
     bordercolor="#666666"
     borderopacity="1.0"
     inkscape:pageopacity="0.0"
     inkscape:pageshadow="2"
     inkscape:zoom="0.80770671"
     inkscape:cx="173.76967"
     inkscape:cy="-20.47259"
     inkscape:document-units="px"
     showgrid="false"
     showguides="true"
     inkscape:guide-bbox="true"
     inkscape:window-width="1855"
     inkscape:window-height="1056"
     inkscape:window-x="65"
     inkscape:window-y="24"
     inkscape:window-maximized="1"
     inkscape:current-layer="svg3217"
     fit-margin-top="-2.7755576e-17"
     fit-margin-left="0.2"
     fit-margin-right="0.2"
     fit-margin-bottom="0" />
  <metadata
     id="metadata3222">
    <rdf:RDF>
      <cc:Work
         rdf:about="">
        <dc:format>image/svg+xml</dc:format>
        <dc:type
           rdf:resource="http://purl.org/dc/dcmitype/StillImage" />
        <dc:title></dc:title>
      </cc:Work>
    </rdf:RDF>
  </metadata>
  <path
     inkscape:connector-curvature="0"
     style="fill:#999999;fill-opacity:1;stroke:#cccccc;stroke-width:2.08232069;stroke-linecap:butt;stroke-linejoin:miter;stroke-miterlimit:4;stroke-opacity:1;stroke-dasharray:none;display:inline"
     d="m 1.6809283,26.640916 217.2779117,0"
     id="path2816-88-0" />
  <path
     inkscape:connector-curvature="0"
     style="fill:#999999;stroke:#cccccc;stroke-width:2.08232069;stroke-linecap:butt;stroke-linejoin:miter;stroke-miterlimit:4;stroke-opacity:1;stroke-dasharray:none;display:inline"
     d="m 1.1945317,67.677918 217.2779083,0"
     id="path2816-8-4-1" />
  <path
     inkscape:connector-curvature="0"
     style="fill:#999999;stroke:#cccccc;stroke-width:2.08232069;stroke-linecap:butt;stroke-linejoin:miter;stroke-miterlimit:4;stroke-opacity:1;stroke-dasharray:none;display:inline"
     d="m 1.0411604,112.04369 217.2778996,0"
     id="path2816-4-3-9" />
  <path
     inkscape:connector-curvature="0"
     style="fill:#999999;stroke:#cccccc;stroke-width:2.08232069;stroke-linecap:butt;stroke-linejoin:miter;stroke-miterlimit:4;stroke-opacity:1;stroke-dasharray:none;display:inline"
     d="m 1.5012554,156.51373 217.2779246,0"
     id="path2816-1-1-6" />
  <path
     inkscape:connector-curvature="0"
     style="fill:#999999;stroke:#cccccc;stroke-width:2.08232069;stroke-linecap:butt;stroke-linejoin:miter;stroke-miterlimit:4;stroke-opacity:1;stroke-dasharray:none;display:inline"
     d="m 1.2471477,200.00958 217.2779023,0"
     id="path2816-9-4-2" />
  <path
     sodipodi:type="arc"
     style="fill:none;stroke:#000000;stroke-width:2;stroke-miterlimit:4;stroke-opacity:1;stroke-dasharray:none;display:inline"
     id="path3708-6-7"
     sodipodi:cx="185.61552"
     sodipodi:cy="184.89368"
     sodipodi:rx="35.102802"
     sodipodi:ry="40.153561"
     d="m 220.71833,184.89368 a 35.102802,40.153561 0 1 1 -70.20561,0 35.102802,40.153561 0 1 1 70.20561,0 z"
     transform="matrix(0.88805964,0,0,0.88956156,-124.12543,-53.417706)" />
  <path
     inkscape:connector-curvature="0"
     style="fill:none;stroke:#000000;stroke-width:2;stroke-linecap:butt;stroke-linejoin:miter;stroke-miterlimit:4;stroke-opacity:1;stroke-dasharray:none;display:inline"
     d="m 80.107335,182.24774 0,-111.621843 33.792345,19.510028 33.64529,-19.425118 0,112.042003"
     id="path3710-8-3" />
  <path
     sodipodi:type="arc"
     style="fill:none;stroke:#000000;stroke-width:2;stroke-linecap:butt;stroke-miterlimit:4;stroke-opacity:1;stroke-dasharray:none;display:inline"
     id="path3738-9-11"
     sodipodi:cx="254.82143"
     sodipodi:cy="250.93361"
     sodipodi:rx="14.107142"
     sodipodi:ry="17.5"
     d="m 268.92857,250.93361 a 14.107142,17.5 0 1 1 -28.21429,0 14.107142,17.5 0 1 1 28.21429,0 z"
     transform="matrix(0.99604079,0,0,1.1192574,-187.88022,-101.09606)" />
  <path
     sodipodi:type="arc"
     style="fill:none;stroke:#000000;stroke-width:2;stroke-linecap:butt;stroke-miterlimit:4;stroke-opacity:1;stroke-dasharray:none;display:inline"
     id="path3738-2-2-9"
     sodipodi:cx="254.82143"
     sodipodi:cy="250.93361"
     sodipodi:rx="14.107142"
     sodipodi:ry="17.5"
     d="m 268.92857,250.93361 a 14.107142,17.5 0 1 1 -28.21429,0 14.107142,17.5 0 1 1 28.21429,0 z"
     transform="matrix(0.99604079,0,0,1.1192574,-120.55879,-101.09606)" />
  <path
     inkscape:connector-curvature="0"
     style="fill:none;stroke:#000000;stroke-width:1.99268019;stroke-linecap:butt;stroke-linejoin:miter;stroke-miterlimit:4;stroke-opacity:1;stroke-dasharray:none;display:inline"
     d="m 199.28078,69.335777 c -43.36148,-1.34637 -45.54963,41.279123 -43.3962,63.385403 2.92752,30.05275 56.49058,38.54326 56.25468,-17.30089 l -26.78851,0"
     id="path3764-6-0"
     sodipodi:nodetypes="cscc" />
  <path
     inkscape:connector-curvature="0"
     style="fill:none;stroke:#000000;stroke-width:1.5;stroke-linecap:butt;stroke-linejoin:miter;stroke-miterlimit:4;stroke-opacity:1;stroke-dasharray:none;display:inline"
     d="m 179.31435,72.349847 c 48.60967,-7.00995 33.1586,-93.2729 7.56128,-61.15809 -22.21947,27.87692 13.01828,194.776443 -8.74475,204.585913 -9.17902,4.13736 -21.2687,-0.88506 -22.15112,-9.57477 -0.8303,-8.17632 6.11632,-20.33342 16.93139,-8.22544"
     id="path3766-6-5"
     sodipodi:nodetypes="cssss" />
  <path
     inkscape:connector-curvature="0"
     style="fill:none;stroke:#000000;stroke-width:4;stroke-linecap:butt;stroke-linejoin:miter;stroke-miterlimit:4;stroke-opacity:1;stroke-dasharray:none;display:inline"
     d="M 80.228625,77.696967 114.02097,97.206985 147.66626,77.781877"
     id="path3710-4-4-6"
     sodipodi:nodetypes="ccc" />
  <path
     sodipodi:type="arc"
     style="fill:#000080;fill-opacity:1;stroke:none;display:inline"
     id="path3860-9-7"
     sodipodi:cx="255.06352"
     sodipodi:cy="267.22113"
     sodipodi:rx="4.5456862"
     sodipodi:ry="6.3134532"
     d="m 259.60921,267.22113 a 4.5456862,6.3134532 0 1 1 -9.09137,0 4.5456862,6.3134532 0 1 1 9.09137,0 z"
     transform="translate(-189.09832,-75.124385)" />
  <path
     transform="translate(-122.42826,-74.871855)"
     sodipodi:type="arc"
     style="fill:#000080;fill-opacity:1;stroke:none;display:inline"
     id="path3860-8-5-7"
     sodipodi:cx="255.06352"
     sodipodi:cy="267.22113"
     sodipodi:rx="4.5456862"
     sodipodi:ry="6.3134532"
     d="m 259.60921,267.22113 a 4.5456862,6.3134532 0 1 1 -9.09137,0 4.5456862,6.3134532 0 1 1 9.09137,0 z" />
  <path
     inkscape:connector-curvature="0"
     id="path2979-4"
     d="m 80.107335,156.48885 0,-85.862953 33.792345,19.510028 33.64529,-19.425118 0,86.788193"
     style="fill:none;stroke:#000000;stroke-width:4;stroke-linecap:butt;stroke-linejoin:miter;stroke-miterlimit:4;stroke-opacity:1;stroke-dasharray:none;display:inline"
     sodipodi:nodetypes="ccccc" />
  <path
     transform="matrix(0.88805964,0,0,0.88956156,-124.12543,-53.417706)"
     d="m 220.71833,184.89368 a 35.102802,40.153561 0 1 1 -70.20561,0 35.102802,40.153561 0 1 1 70.20561,0 z"
     sodipodi:ry="40.153561"
     sodipodi:rx="35.102802"
     sodipodi:cy="184.89368"
     sodipodi:cx="185.61552"
     id="path3753-0"
     style="fill:none;stroke:#000000;stroke-width:3.3752985;stroke-miterlimit:4;stroke-opacity:1;stroke-dasharray:none;display:inline"
     sodipodi:type="arc" />
  <path
     inkscape:connector-curvature="0"
     sodipodi:nodetypes="cscc"
     id="path3755-6"
     d="m 199.28078,69.335777 c -43.36148,-1.34637 -45.54963,41.279123 -43.3962,63.385403 2.92752,30.05275 56.49058,38.54326 56.25468,-17.30089 l -26.78851,0"
     style="fill:none;stroke:#000000;stroke-width:4;stroke-linecap:butt;stroke-linejoin:miter;stroke-miterlimit:4;stroke-opacity:1;stroke-dasharray:none;display:inline" />
  <path
     sodipodi:type="arc"
     style="fill:none;stroke:#000000;stroke-width:3.04303622;stroke-linecap:butt;stroke-miterlimit:4;stroke-opacity:1;stroke-dasharray:none;display:inline"
     id="path3836-4"
     sodipodi:cx="178.797"
     sodipodi:cy="712.1933"
     sodipodi:rx="18.182745"
     sodipodi:ry="29.546961"
     d="m 196.97974,712.1933 a 18.182745,29.546961 0 1 1 -36.36549,0 18.182745,29.546961 0 1 1 36.36549,0 z"
     transform="matrix(1.0388606,-0.47904892,0.5038118,0.98779947,-504.02276,-506.8028)" />
  <path
     inkscape:connector-curvature="0"
     style="fill:#000000;fill-opacity:1;stroke:#000000;stroke-width:1px;stroke-linecap:butt;stroke-linejoin:miter;stroke-opacity:1;display:inline"
     d="m 27.401802,79.986684 c 14.66991,1.18232 37.7442,14.258511 37.37564,51.644046 4.79822,-6.65017 12.46518,-14.59423 2.65165,-40.406095 C 55.950702,70.656364 27.772752,75.856614 27.401802,79.986684 z"
     id="path3838-7"
     sodipodi:nodetypes="cccc" />
  <path
     inkscape:connector-curvature="0"
     style="fill:#000000;fill-opacity:1;stroke:#000000;stroke-width:1px;stroke-linecap:butt;stroke-linejoin:miter;stroke-opacity:1;display:inline"
     d="m 53.706262,142.42672 c -14.66991,-1.18232 -37.7442,-14.25851 -37.37564,-51.644045 -4.79822,6.65017 -12.4651806,14.594225 -2.65165,40.406095 11.47839,20.56827 39.65634,15.36802 40.02729,11.23795 z"
     id="path3838-1-4"
     sodipodi:nodetypes="cccc" />
  <path
     inkscape:connector-curvature="0"
     style="fill:#000000;fill-opacity:1;stroke:#000000;stroke-width:1px;stroke-linecap:butt;stroke-linejoin:miter;stroke-opacity:1;display:inline"
     d="m 55.206765,151.55577 10.34026,-5.96995 9.44325,5.19062 -9.654,-2.65684 -10.12951,3.43617 z"
     id="path3974"
     sodipodi:nodetypes="ccccc" />
  <path
     inkscape:connector-curvature="0"
     style="fill:#000000;fill-opacity:1;stroke:#000000;stroke-width:1px;stroke-linecap:butt;stroke-linejoin:miter;stroke-opacity:1;display:inline"
     d="m 123.17215,151.68361 10.34026,-5.96995 9.44325,5.19062 -9.654,-2.65684 -10.12951,3.43617 z"
     id="path3974-3"
     sodipodi:nodetypes="ccccc" />
</svg>
